<mxfile host="app.diagrams.net" modified="2023-03-18T10:00:19.373Z" agent="5.0 (Windows NT 10.0; Win64; x64) AppleWebKit/537.36 (KHTML, like Gecko) Chrome/111.0.0.0 Safari/537.36" etag="Vsci75aNeEfrNH2ZNhZs" version="21.0.7" type="github">
  <diagram name="Page-1" id="TsWDDXw1QwmXffbHF0jR">
    <mxGraphModel dx="780" dy="416" grid="1" gridSize="10" guides="1" tooltips="1" connect="1" arrows="1" fold="1" page="1" pageScale="1" pageWidth="850" pageHeight="1100" math="0" shadow="0">
      <root>
        <mxCell id="0" />
        <mxCell id="1" parent="0" />
        <mxCell id="vnYX8x2UFVEMhmKHU0my-1" value="" style="sketch=0;html=1;dashed=0;whitespace=wrap;fillColor=#2875E2;strokeColor=#ffffff;points=[[0.005,0.63,0],[0.1,0.2,0],[0.9,0.2,0],[0.5,0,0],[0.995,0.63,0],[0.72,0.99,0],[0.5,1,0],[0.28,0.99,0]];verticalLabelPosition=bottom;align=center;verticalAlign=top;shape=mxgraph.kubernetes.icon;prIcon=user" parent="1" vertex="1">
          <mxGeometry x="20" y="526" width="50" height="48" as="geometry" />
        </mxCell>
        <mxCell id="vnYX8x2UFVEMhmKHU0my-2" value="Web Application" style="sketch=0;aspect=fixed;pointerEvents=1;shadow=0;dashed=0;html=1;strokeColor=none;labelPosition=center;verticalLabelPosition=bottom;verticalAlign=top;align=center;fillColor=#2875E2;shape=mxgraph.mscae.enterprise.client_application" parent="1" vertex="1">
          <mxGeometry x="100" y="534" width="52" height="32" as="geometry" />
        </mxCell>
      </root>
    </mxGraphModel>
  </diagram>
</mxfile>
